<svg width="400" height="400" viewBox="0 0 400 400" fill="none" xmlns="http://www.w3.org/2000/svg">
<path d="M0 200V400H200H400V200V-5.96046e-06H200H0V200ZM331.5 107C336.9 109.6 339.2 113.7 339.1 120.6C339 131.1 334.6 135.4 323.5 135.5C315.2 135.5 311.6 133.7 309.4 128.5C307.7 124.4 307.6 117.5 309.1 113.1C311.6 106.1 323 102.9 331.5 107ZM112 152C123.5 155.9 130.6 162.2 135.9 173.5C140.8 183.9 141.9 191.9 142.2 219.5C142.6 250.2 142.5 250 152.5 250H159V255C159 260.9 159 260.8 146.5 263.9C128.1 268.5 122.2 267.8 119.6 260.7C118 256.5 117.2 252.5 117.1 248.2C117 246.1 116.4 246.5 111.9 251.4C97.1 267.6 70.2 271.7 56.8 259.9C51.1 254.7 49.5 250.4 49.5 239.5C49.5 227.7 51.1 223.7 58.5 217.2C67.1 209.6 78.1 205.3 101 200.3C107.3 199 112.8 197.6 113.2 197.2C114.4 196 112 181.9 109.6 176.5C106.3 169.3 100.9 164.3 95.4 163.4C90.1 162.6 85.4 163.4 83.5 165.4C82.7 166.2 81.5 167 80.8 167.3C79.9 167.6 80.2 168.3 81.7 169.6C83.2 170.9 84.1 173.1 84.6 176.5C85.1 180.7 84.8 182 82.8 185C79.3 190.2 74.7 192.2 67.6 191.7C62.5 191.4 61.3 190.9 58.9 188.2C52.2 180.7 53.4 168.5 61.7 160.9C67.5 155.5 72.9 153.2 88.5 149.6C92.6 148.6 105.7 150 112 152ZM245.1 150.4C258.8 153.3 267.2 159.9 273.4 172.4C278 181.7 280 189.4 280.7 200.6C282.5 228.2 270.6 253.4 252.3 260.9C247.8 262.8 244.1 263.4 235.4 263.8C221.3 264.4 216.2 262.9 208.6 255.9L203.2 251L203.1 267.9V284.9L210.8 286.5C223.1 289.1 223.4 289.3 223.7 292.6C223.9 294.2 223.8 297 223.5 298.8L222.9 302H191.5H160V295.6V289.2L164.8 288C167.4 287.4 170.9 286.6 172.5 286.2L175.5 285.4L175.8 226.8L176 168.2L168.3 166.3L160.5 164.4L160.2 158.2L159.9 152H178.8H197.8L198.5 156.7C199.9 166.5 199.5 166.3 205.8 160C210.4 155.5 212.8 153.9 218 152.2C228.5 148.8 235.2 148.3 245.1 150.4ZM337 200V248L339.8 248.6C341.3 248.9 344.9 249.9 347.8 250.7L353 252.1V258.1V264H323.5H294V258.1V252.1L299.3 250.7C302.1 249.8 305.4 249 306.5 248.8C309.7 248.3 310.1 242.7 309.8 204.7C309.5 165.4 309.9 167.7 303.1 166.5C301.1 166.2 298.3 165.4 296.8 164.8C294.2 163.8 294 163.4 294 157.9V152H315.5H337V200Z" fill="black"/>
<path d="M106 210C90.9 214.2 82 219.4 79.4 225.7C77.8 229.5 77.6 238.5 79 242.6C80.3 246.3 85.7 250 89.7 250C97.4 250 106.5 243.9 110.5 236.1C113.6 229.9 115.3 220.2 114.4 213.4C114.1 210.4 113.5 208 113.1 208.1C112.8 208.2 109.6 209 106 210Z" fill="black"/>
<path d="M218.4 166.5C208.7 170.8 203.7 184.1 203.6 206C203.6 226.4 207.7 238.8 216.6 245.7C219.7 248 221.5 248.5 227.7 248.8C234.5 249.2 235.4 249 239.1 246.4C244.6 242.6 247.7 237 250 226.4C254.5 206 250.5 178.5 241.9 169.9C237.2 165.2 225.3 163.5 218.4 166.5Z" fill="black"/>
</svg>
