<svg width="134" height="74" viewBox="0 0 134 74" fill="none" xmlns="http://www.w3.org/2000/svg" data-reactid="7"><g data-reactid="8"><path d="M52.1895 35.0791H16.8615V51.0241H52.1895V35.0791Z" fill="#23853D" data-reactid="9"></path><path d="M43.3575 6.37793H31.3137V35.0796H43.3575V6.37793Z" fill="#FDC107" data-reactid="10"></path><path d="M44.9877 45.6557C44.55 45.6557 44.0917 45.5925 43.7381 45.3891C43.3846 45.1858 43.1872 44.7548 42.9768 44.3926C42.7664 44.0304 42.5353 43.6747 42.5353 43.2401C42.5375 42.813 42.6512 42.3938 42.8655 42.0235C43.0769 41.6613 43.4379 41.4106 43.8008 41.2016C44.1608 40.9929 44.5708 40.8841 44.9877 40.8868C45.4254 40.8868 45.793 41.0437 46.1465 41.2471C46.5001 41.4505 46.8358 41.6975 47.0472 42.0597C47.2586 42.4219 47.3007 42.8027 47.3007 43.2401C47.3007 43.6775 47.2829 44.088 47.079 44.4391C46.8779 44.8142 46.576 45.1265 46.2068 45.3413C45.8375 45.5561 45.4155 45.6649 44.9877 45.6557Z" fill="#FDC107" data-reactid="11"></path><path d="M24.2971 45.6229C23.8388 45.6385 23.3846 45.5327 22.9811 45.3165C22.5808 45.0861 22.3152 44.7184 22.0832 44.3209C21.8531 43.9373 21.7329 43.4987 21.7353 43.0523C21.7262 42.6038 21.8396 42.1612 22.0636 41.7716C22.2956 41.3741 22.5537 40.972 22.954 40.7417C23.3543 40.5113 23.8163 40.5216 24.2971 40.5216C24.7778 40.5216 25.2464 40.529 25.6345 40.7519C26.0306 40.9957 26.3561 41.3375 26.5792 41.7437C26.7997 42.1443 26.9091 42.5959 26.8963 43.0523C26.8963 43.5296 26.8804 44.0191 26.6559 44.4045C26.4314 44.7899 25.9647 45.0016 25.5644 45.231C25.1641 45.4604 24.7778 45.6229 24.2971 45.6229Z" fill="#FDC107" data-reactid="12"></path><path d="M34.619 45.2595C34.1776 45.2595 33.7595 45.2307 33.4031 45.0255C33.024 44.8225 32.7038 44.526 32.4735 44.1646C32.2677 43.8098 32.1994 43.3724 32.1994 42.934C32.1793 42.5083 32.2833 42.0858 32.499 41.7173C32.7147 41.3488 33.0328 41.0499 33.4153 40.8565C33.7716 40.6513 34.1822 40.46 34.6237 40.46C35.0652 40.46 35.4655 40.6726 35.819 40.8769C36.1895 41.0789 36.5 41.3738 36.7197 41.7323C36.9264 42.0861 37.1256 42.4957 37.1256 42.934C37.1256 43.3724 36.946 43.7931 36.7393 44.1469C36.5326 44.5008 36.238 44.8676 35.8704 45.0756C35.5029 45.2837 35.0605 45.2595 34.619 45.2595Z" fill="#F3F5E5" data-reactid="13"></path><path d="M17.664 0H4.81769V12.7558H17.664V0Z" fill="#23853D" data-reactid="14"></path><path d="M31.3137 3.18945H17.664V12.757H31.3137V3.18945Z" fill="#E6423E" data-reactid="15"></path><path d="M52.1895 10.3643H43.3575V35.079H52.1895V10.3643Z" fill="#3268B1" data-reactid="16"></path><path d="M31.3137 27.9043H4.81769V35.0795H31.3137V27.9043Z" fill="#E6423E" data-reactid="17"></path><path d="M22.4817 17.54H0V19.9315H22.4817V17.54Z" fill="#F3F5E5" data-reactid="18"></path><path d="M22.4817 12.7559H0V17.5396H22.4817V12.7559Z" fill="#3268B1" data-reactid="19"></path><path d="M22.4817 19.9316H0V23.9177H22.4817V19.9316Z" fill="#FDC107" data-reactid="20"></path><path d="M22.4817 23.918H0V27.904H22.4817V23.918Z" fill="#23853D" data-reactid="21"></path><path d="M31.3137 12.7559H22.4817V27.904H31.3137V12.7559Z" fill="#F3F5E5" data-reactid="22"></path><path d="M16.8615 35.0791H4.81769V47.8349H16.8615V35.0791Z" fill="#3268B1" data-reactid="23"></path><path d="M44.9634 51.0254H16.8615V63.7812H44.9634V51.0254Z" fill="#E6423E" data-reactid="24"></path><path d="M44.9634 63.7803H39.3432V73.3478H44.9634V63.7803Z" fill="#FDC107" data-reactid="25"></path><path d="M29.7078 73.3477H34.5255V63.7801H29.7078V73.3477Z" fill="#23853D" data-reactid="26"></path><path d="M34.5245 73.3477H39.3422V63.7801H34.5245V73.3477Z" fill="#F3F5E5" data-reactid="27"></path><path d="M16.8615 47.8359H12.0438V69.3615H16.8615V47.8359Z" fill="#FDC107" data-reactid="28"></path><path d="M29.7078 63.7803H19.2699V73.3478H29.7078V63.7803Z" fill="#3268B1" data-reactid="29"></path><path d="M19.2699 63.7803H16.8615V69.3609H19.2699V63.7803Z" fill="#F3F5E5" data-reactid="30"></path><path d="M35.2485 30.0401L35.3953 27.7286L35.2372 25.456L35.385 23.2234L36.6617 23.1055L38.0085 23.2624L39.4227 23.1445L39.2758 25.456L39.4339 27.7286L39.2861 29.9602L38.0095 30.0791L36.6617 29.9222L35.2485 30.0401Z" fill="#23853D" data-reactid="31"></path><path d="M35.2485 18.3136L35.3953 16.002L35.2372 13.7295L35.385 11.4978L36.6617 11.3789L38.0085 11.5359L39.4227 11.4179L39.2758 13.7295L39.4339 16.002L39.2861 18.2346L38.0095 18.3526L36.6617 18.1956L35.2485 18.3136Z" fill="#E6423E" data-reactid="32"></path></g><path d="M63.5881 4.93652V21.7536H71.1396C72.5908 21.7536 74.2388 21.7536 75.4687 20.8466C76.6494 19.9886 77.5349 18.6893 77.5349 17.2184C77.5349 15.0366 76.1082 13.4431 74.0175 13.0264V12.9774C75.7885 12.5361 77.0675 11.2613 77.0675 9.34918C77.0675 7.75572 76.3542 6.52998 75.0013 5.67197C73.8453 4.93652 72.4678 4.93652 71.1396 4.93652H63.5881ZM67.5237 7.92732H69.9097C70.5738 7.92732 71.6069 7.85378 72.1726 8.17247C72.7138 8.49116 73.009 9.07952 73.009 9.69238C73.009 10.2562 72.763 10.8691 72.2956 11.2123C71.7053 11.6536 70.8936 11.6045 70.2049 11.6045H67.5237V7.92732ZM67.5237 14.5953H70.4262C71.0658 14.5953 71.8529 14.5953 72.4186 14.914C72.9844 15.2327 73.3779 15.8946 73.3779 16.532C73.3779 17.2184 73.0582 17.9048 72.4924 18.2725C71.8775 18.6893 70.9674 18.6403 70.254 18.6403H67.5237V14.5953Z" fill="#EDF3DF" data-reactid="33"></path><path d="M79.0884 21.7536H82.7042V4.93652H79.0884V21.7536Z" fill="#EDF3DF" data-reactid="34"></path><path d="M96.0548 21.7536C95.858 21.1408 95.8088 20.5279 95.8088 19.8905V14.0805C95.8088 12.5851 95.9318 11.2123 94.6528 10.1827C93.6443 9.34918 91.9716 9.055 90.6926 9.055C88.0606 9.055 85.109 9.93753 84.74 12.9528L88.159 13.2715C88.159 12.0458 89.1675 11.4574 90.3236 11.4574C90.8648 11.4574 91.4797 11.629 91.7995 12.0458C92.1684 12.5116 92.1192 13.149 92.1192 13.6883V13.9825C90.5942 14.1296 88.6018 14.2276 87.1751 14.7669C85.5271 15.3798 84.371 16.6301 84.371 18.4687C84.371 20.8221 86.0929 21.9988 88.3066 21.9988C90.176 21.9988 91.2583 21.2879 92.2914 19.817C92.2668 20.4544 92.316 21.1163 92.4636 21.7536H96.0548ZM92.1192 16.2869C92.1192 17.1694 92.1438 17.9048 91.6273 18.6893C91.2091 19.3267 90.545 19.7189 89.8071 19.7189C88.7986 19.7189 88.2082 19.057 88.2082 18.0764C88.2082 16.2623 90.7418 15.9436 92.1192 15.7966V16.2869Z" fill="#EDF3DF" data-reactid="35"></path><path d="M108.822 13.8354C108.576 10.9181 106.264 9.055 103.361 9.055C99.4256 9.055 97.1135 11.8252 97.1135 15.6495C97.1135 19.3267 99.3518 21.9988 103.14 21.9988C106.19 21.9988 108.527 20.1602 108.822 17.0713L105.378 16.8752C105.255 18.0274 104.616 19.0325 103.337 19.0325C101.27 19.0325 101.246 16.8752 101.246 15.3553C101.246 13.7618 101.492 11.8007 103.484 11.8007C104.788 11.8007 105.378 12.9038 105.378 14.0315L108.822 13.8354Z" fill="#EDF3DF" data-reactid="36"></path><path d="M118.859 13.5412L122.425 9.30015H118.859L115.39 13.3696L114.21 15.0121V4.93652H110.594V21.7536H114.21V18.5667L116.227 16.1152L118.859 21.7536H122.917L118.859 13.5412Z" fill="#EDF3DF" data-reactid="37"></path><path d="M133.483 12.3155C132.623 9.98656 131.024 9.055 128.564 9.055C125.907 9.055 123.226 10.1582 123.226 13.2225C123.226 14.7915 124.21 16.0662 125.686 16.581C126.473 16.8507 128.539 17.2184 129.4 17.3165C130.064 17.39 130.802 17.5371 130.802 18.3706C130.802 19.3022 129.302 19.5473 128.613 19.5473C127.457 19.5473 126.104 19.1551 125.858 17.8803L122.734 18.3216C123.398 21.1163 125.834 21.9988 128.441 21.9988C129.818 21.9988 131.196 21.7536 132.327 20.9692C133.385 20.2092 134 19.057 134 17.7577C134 12.1439 126.498 14.7915 126.498 12.4626C126.498 11.5555 127.629 11.3594 128.367 11.3594C129.548 11.3594 130.483 11.8497 130.802 13.0264L133.483 12.3155Z" fill="#EDF3DF" data-reactid="38"></path><path d="M83.8318 25.3655H80.585L78.1252 35.9558L77.9776 36.6913H77.9284L75.0997 25.3655H71.4593L68.729 36.6913H68.6798L66.0971 25.3655H62.0631L66.4169 42.1826H70.254L72.9106 31.0529H72.9598L75.7147 42.1826H79.6011L83.8318 25.3655Z" fill="#EDF3DF" data-reactid="39"></path><path d="M95.6482 34.2643C95.6482 33.0631 95.722 31.8129 94.9594 30.8323C94.2215 29.8762 92.9917 29.484 91.8356 29.484C90.4827 29.484 89.0561 30.1949 88.5887 31.4451H88.5395V25.3655H84.9237V42.1826H88.5395V35.4655C88.5395 34.7301 88.5395 33.9456 88.8593 33.2837C89.1545 32.6709 89.917 32.3522 90.5811 32.3522C92.1553 32.3522 92.0324 34.3869 92.0324 35.4655V42.1826H95.6482V34.2643Z" fill="#EDF3DF" data-reactid="40"></path><path d="M103.028 29.484C99.2158 29.484 97.1004 32.3031 97.1004 35.9313C97.1004 39.535 99.1912 42.4277 103.028 42.4277C106.718 42.4277 109.055 39.6085 109.055 36.0539C109.055 32.3767 106.939 29.484 103.028 29.484ZM103.053 31.8619C103.889 31.8619 104.48 32.1806 104.775 32.9896C105.119 33.9211 105.168 35.0978 105.168 36.0784C105.168 37.5738 105.07 40.0253 103.028 40.0253C100.962 40.0253 100.987 36.9855 100.987 35.5636C100.987 34.1418 101.11 31.8619 103.053 31.8619Z" fill="#EDF3DF" data-reactid="41"></path><path d="M63.4652 45.7944V62.6115H69.0242C71.4101 62.6115 73.4763 62.1212 75.1489 60.2826C76.6494 58.5911 77.3381 56.4093 77.3381 54.154C77.3381 51.727 76.551 49.3981 74.7308 47.6821C72.886 45.9415 70.7952 45.7944 68.36 45.7944H63.4652ZM67.4007 48.8833H68.7536C70.1557 48.8833 71.1642 49.0549 72.0743 50.2316C72.886 51.2857 73.2795 52.7076 73.2795 54.0314C73.2795 55.2816 73.009 56.5809 72.3448 57.6596C71.4347 59.1305 70.377 59.4491 68.729 59.4491H67.4007V48.8833Z" fill="#EDF3DF" data-reactid="42"></path><path d="M90.2802 56.9977C90.3048 55.3061 90.0342 53.5411 89.0011 52.1192C87.968 50.6974 86.1724 49.9129 84.426 49.9129C80.5396 49.9129 78.3504 52.8792 78.3504 56.5564C78.3504 60.2581 80.7856 62.8567 84.5244 62.8567C88.7551 62.8567 90.2064 59.1795 90.2064 58.5666L86.8611 58.3215C86.8611 59.4737 85.7543 60.2826 84.6474 60.2826C83.0731 60.2826 82.2368 59.0814 82.2368 57.6105L82.2614 56.9977H90.2802ZM82.2368 54.8649C82.3598 53.443 82.9747 52.2663 84.5736 52.2663C86.1478 52.2663 86.5906 53.5166 86.6644 54.8649H82.2368Z" fill="#EDF3DF" data-reactid="43"></path><path d="M101.522 53.1734C100.661 50.8445 99.0624 49.9129 96.6027 49.9129C93.9462 49.9129 91.265 51.0161 91.265 54.0804C91.265 55.6494 92.2489 56.9241 93.7248 57.4389C94.5119 57.7086 96.5781 58.0763 97.439 58.1744C98.1031 58.2479 98.841 58.395 98.841 59.2285C98.841 60.1601 97.3406 60.4052 96.6519 60.4052C95.4958 60.4052 94.1429 60.013 93.897 58.7382L90.7731 59.1795C91.4372 61.9742 93.8724 62.8567 96.4797 62.8567C97.8571 62.8567 99.2346 62.6115 100.366 61.8271C101.424 61.0671 102.039 59.9149 102.039 58.6156C102.039 53.0018 94.5365 55.6494 94.5365 53.3205C94.5365 52.4134 95.668 52.2173 96.4059 52.2173C97.5866 52.2173 98.5213 52.7076 98.841 53.8843L101.522 53.1734Z" fill="#EDF3DF" data-reactid="44"></path><path d="M107.303 50.1581H103.687V62.6115H107.303V50.1581ZM107.303 45.5493H103.687V49.0304H107.303V45.5493Z" fill="#EDF3DF" data-reactid="45"></path><path d="M109.215 53.8107C109.215 55.3061 110.076 56.3358 111.429 56.8506C110.175 57.3654 108.92 58.0763 108.92 59.6207C108.92 60.7239 109.56 61.3858 110.519 61.8516C109.388 62.0967 108.354 62.8322 108.354 64.1069C108.354 66.9261 112.807 66.9997 114.799 66.9997C116.275 66.9997 118.046 66.9016 119.399 66.3378C120.825 65.7494 122.031 64.6217 122.031 62.9547C122.031 60.2336 119.571 59.7678 117.382 59.6453L115.807 59.5717C115.094 59.5472 113.766 59.4982 113.126 59.3266C112.659 59.1795 112.413 58.8853 112.413 58.3705C112.413 57.9537 112.684 57.6596 113.028 57.4634C113.668 57.5615 114.43 57.6351 115.119 57.6351C117.505 57.6351 120.678 56.777 120.678 53.8353C120.678 52.7811 120.383 52.1683 119.694 51.4083C119.792 50.6483 120.456 50.3297 121.145 50.3297C121.465 50.3297 121.785 50.4032 122.104 50.4522V48.1233C121.76 48.0498 121.44 48.0253 121.096 48.0253C119.227 48.0253 118.513 48.5646 118.267 50.4522C117.185 50.0845 116.078 49.9129 114.947 49.9129C112.511 49.9129 109.215 50.7954 109.215 53.8107ZM114.897 51.8986C116.029 51.8986 117.062 52.487 117.062 53.7372C117.062 55.012 116.078 55.6494 114.897 55.6494C113.692 55.6494 112.905 54.9875 112.905 53.7617C112.905 52.585 113.741 51.8986 114.897 51.8986ZM118.587 63.5921C118.587 64.8669 116.078 64.7934 115.193 64.7934C114.405 64.7934 113.274 64.7688 112.487 64.5482C111.97 64.4011 111.577 64.1315 111.577 63.5431C111.577 63.0528 111.921 62.7096 112.364 62.538C114.012 62.6606 116.398 62.6606 117.259 62.7341C117.775 62.7831 118.587 62.9302 118.587 63.5921Z" fill="#EDF3DF" data-reactid="46"></path><path d="M122.733 62.6115H126.349V55.919C126.349 55.1345 126.398 54.4236 126.767 53.7127C127.063 53.1489 127.653 52.7811 128.292 52.7811C130.113 52.7811 129.94 54.6442 129.94 55.919V62.6115H133.556V54.9139C133.556 53.7862 133.556 52.2173 132.868 51.2857C132.13 50.2806 130.974 49.9129 129.793 49.9129C127.973 49.9129 126.94 50.6729 126.202 52.2663H126.152V50.1581H122.733V62.6115Z" fill="#EDF3DF" data-reactid="47"></path><defs data-reactid="48"><clipPath id="clip0" data-reactid="49"><rect width="52.1895" height="73.3474" fill="white" data-reactid="50"></rect></clipPath></defs></svg>