<svg width="8010" height="8010" viewBox="0 0 8010 8010" fill="none" xmlns="http://www.w3.org/2000/svg">
<g clip-path="url(#clip0)">
<path d="M0 0H8010V8010H0V0Z" fill="white"/>
<path fill-rule="evenodd" clip-rule="evenodd" d="M14477.4 11882.4H8554.8C9309.63 10892.4 9483.83 10775.9 9483.83 10077.1V4603.1C9483.83 1982.56 9541.89 -1744.43 9599.96 -5296.72C9658.02 -7043.75 9774.15 -9198.42 9774.15 -10712.5H7161.26L9658.02 -11935.4H14477.4C13432.2 -11353.1 13083.8 -11120.1 12967.7 -9955.46C12677.4 -7334.92 12677.4 -3258.52 12677.4 1574.92V9378.31C12677.4 10717.7 12909.6 10892.4 14012.8 11008.9C14593.5 11067.1 15174.1 11125.3 15754.8 11183.6L14477.4 11882.4V11882.4Z" fill="rgba(30, 30, 30, 1)"/>
<path fill-rule="evenodd" clip-rule="evenodd" d="M3453.87 -4329.44C4207.67 -3687.98 5831.26 -2346.73 5831.26 219.133C5831.26 2726.68 4439.61 3892.98 2989.98 5000.97C2526.1 5467.49 2062.22 5934.01 2062.22 6633.79C2062.22 7391.89 2584.09 7800.09 2932 8091.67L4149.69 9024.71C5599.32 10249.3 6990.96 11415.6 6990.96 13748.2C6990.96 16897.2 3917.75 20104.6 -1822.78 20104.6C-6693.54 20104.6 -9070.93 17772 -9070.93 15264.4C-9070.93 14039.8 -8491.08 12348.7 -6461.6 11124.1C-4374.13 9841.12 -1532.86 9666.17 -25.2432 9549.54C-489.124 8966.39 -1010.99 8324.93 -1010.99 7275.26C-1010.99 6692.11 -837.036 6342.22 -663.08 5934.01C-1010.99 5992.33 -1416.89 5992.33 -1764.8 5992.33C-5301.89 5992.33 -7331.37 3309.83 -7331.37 685.653C-7331.37 -888.854 -6635.55 -2579.99 -5185.92 -3862.92C-3272.41 -5437.43 -1010.99 -5729 844.534 -5729H7744.77L5599.32 -4504.39H3453.87V-4329.44V-4329.44ZM1076.47 10715.8C786.549 10657.5 612.594 10657.5 322.668 10657.5C32.742 10657.5 -1822.78 10715.8 -3214.43 11182.4C-3968.23 11473.9 -6113.68 12290.4 -6113.68 14681.3C-6113.68 17072.2 -3794.28 18821.6 -199.199 18821.6C3047.97 18821.6 4729.54 17247.1 4729.54 15147.8C4729.54 13456.7 3627.82 12523.6 1076.47 10715.8V10715.8ZM2062.22 4301.19C2816.03 3543.09 2874.01 2435.11 2874.01 1851.95C2874.01 -597.278 1424.39 -4387.76 -1358.9 -4387.76C-2228.68 -4387.76 -3156.44 -3921.24 -3736.29 -3279.77C-4316.15 -2579.99 -4490.1 -1646.95 -4490.1 -772.224C-4490.1 1502.06 -3156.44 5234.23 -315.169 5234.23C612.594 5234.23 1482.37 4826.02 2062.22 4301.19Z" fill="rgba(30, 30, 30, 1)"/>
</g>
<defs>
<clipPath id="clip0">
<rect width="8010" height="8010" fill="inherit"/>
</clipPath>
</defs>
</svg>
