<svg xmlns="http://www.w3.org/2000/svg" xmlns:xlink="http://www.w3.org/1999/xlink" width="48px" height="30px" viewBox="0 0 48 30" version="1.1">
    <!-- Generator: Sketch 54.1 (76490) - https://sketchapp.com -->
    <title>logo white</title>
    <desc>Created with Sketch.</desc>
    <g id="1-Mar-2019" stroke="none" stroke-width="1" fill="none" fill-rule="evenodd">
        <g id="logo-white" transform="translate(-5.000000, -14.000000)">
            <rect id="Rectangle" fill="#FFFFFF" opacity="0" x="0" y="0" width="59" height="59" rx="12"/>
            <g id="IWD" transform="translate(5.000000, 14.000000)" fill-rule="nonzero">
                <path d="M4.28571429,1.60714286 L4.28571429,1.60714286 C5.76504844,1.60714286 6.96428571,2.80638013 6.96428571,4.28571429 L6.96428571,4.28571429 C6.96428571,5.76504844 5.76504844,6.96428571 4.28571429,6.96428571 L4.28571429,6.96428571 C2.80638013,6.96428571 1.60714286,5.76504844 1.60714286,4.28571429 L1.60714286,4.28571429 C1.60714286,2.80638013 2.80638013,1.60714286 4.28571429,1.60714286 Z" id="Path" fill="#333333"/>
                <path d="M4.28571429,8.57142857 C1.91877964,8.57142857 2.89865893e-16,6.65264893 0,4.28571429 C-2.89865893e-16,1.91877964 1.91877964,4.3479884e-16 4.28571429,0 C6.65264893,-4.3479884e-16 8.57142857,1.91877964 8.57142857,4.28571429 C8.56877149,6.65154745 6.65154745,8.56877149 4.28571429,8.57142857 Z" id="Shape" fill="#FFFFFF"/>
                <path d="M31.0714286,30 C30.360791,30.0002746 29.67917,29.7181448 29.1766071,29.2157143 L17.7626786,17.8007143 L13.7603571,22.1673214 C12.7606231,23.2578866 11.0661009,23.3315197 9.97553571,22.3317857 C8.88497058,21.3320517 8.81133741,19.6375294 9.81107143,18.5469643 L15.7039286,12.1183929 C16.1976088,11.5797125 16.8899238,11.2660921 17.6204336,11.2502115 C18.3509433,11.2343308 19.0562335,11.5175685 19.5728571,12.0342857 L28.3928571,20.8548214 L28.3928571,13.9441071 C28.3928571,12.464773 29.5920944,11.2655357 31.0714286,11.2655357 C32.5507627,11.2655357 33.75,12.464773 33.75,13.9441071 L33.75,27.3214286 C33.75,28.8007627 32.5507627,30 31.0714286,30 Z" id="Path" fill="#FFFFFF"/>
                <path d="M4.28571429,30 C2.80638013,30 1.60714286,28.8007627 1.60714286,27.3214286 L1.60714286,13.9457143 C1.60714286,12.4663801 2.80638013,11.2671429 4.28571429,11.2671429 C5.76504844,11.2671429 6.96428571,12.4663801 6.96428571,13.9457143 L6.96428571,27.3214286 C6.96428571,28.8007627 5.76504844,30 4.28571429,30 Z" id="Path" fill="#FFFFFF"/>
                <path d="M38.5714286,30 C37.0920944,30 35.8928571,28.8007627 35.8928571,27.3214286 C35.8928571,25.8420944 37.0920944,24.6428571 38.5714286,24.6428571 C40.7904298,24.6428571 42.5892857,22.8440012 42.5892857,20.625 C42.5892857,18.4059988 40.7904298,16.6071429 38.5714286,16.6071429 C37.0920944,16.6071429 35.8928571,15.4079056 35.8928571,13.9285714 C35.8928571,12.4492373 37.0920944,11.25 38.5714286,11.25 C43.7410714,11.25 47.9464286,15.4553571 47.9464286,20.625 C47.9464286,25.7946429 43.7410714,30 38.5714286,30 Z" id="Path" fill="#FFFFFF"/>
            </g>
        </g>
    </g>
</svg>
