<svg width="1495" height="285" viewBox="0 0 1495 285" fill="none" xmlns="http://www.w3.org/2000/svg">
    <title id="QDCLogo">Queer Design Club</title>
    <desc id="logoDesc">Our logo, an RGB rainbow ending in a mouse pointer</desc>
    <path class="logo-text" fill-rule="evenodd" clip-rule="evenodd" d="M422.295 134.01C422.295 153.411 433.991 169.794 453.831 169.794C460.932 169.794 466.362 167.854 470.122 163.974L473.045 166.776C475.134 168.932 477.431 169.579 479.52 169.579C483.697 169.579 486.829 166.561 486.829 161.818C486.829 159.663 486.412 157.507 484.114 155.351L480.355 151.687C483.488 147.375 485.367 141.124 485.367 133.579C485.367 114.609 473.672 98.2256 453.831 98.2256C433.991 98.2256 422.295 114.609 422.295 134.01ZM459.053 134.441C454.876 134.441 451.743 137.675 451.743 142.202C451.743 147.16 455.711 150.393 459.47 152.765C457.799 153.411 455.711 153.842 453.831 153.842C444.224 153.842 438.377 145.004 438.377 134.01C438.377 123.016 444.015 114.178 453.623 114.178C463.23 114.178 469.077 123.016 469.077 134.01C469.077 136.381 468.868 138.753 468.451 140.262L465.527 137.244C463.438 135.088 461.141 134.441 459.053 134.441Z" fill="#0B0827"></path>
    <path class="logo-text" d="M505.417 107.495V139.184C505.417 157.507 515.859 169.794 532.985 170.01C549.693 170.01 560.135 157.723 560.135 139.399V107.495C560.135 101.89 556.585 98.4412 552.199 98.4412C547.813 98.4412 544.263 101.89 544.263 107.495V138.753C544.263 147.806 540.712 153.842 532.776 153.842C524.631 153.842 521.289 147.806 521.289 138.753V107.495C521.289 101.89 517.739 98.4412 513.353 98.4412C508.967 98.4412 505.417 101.89 505.417 107.495Z" fill="#0B0827"></path>
    <path class="logo-text" d="M627.802 160.525C627.802 155.998 624.46 152.549 619.239 152.549H596.683V141.339H608.17C613.182 141.339 616.315 137.89 616.315 133.579C616.315 129.268 613.182 125.818 608.17 125.818H596.683V115.471H618.612C623.834 115.471 627.175 112.022 627.175 107.495C627.175 102.968 623.834 99.519 618.612 99.519H588.747C583.944 99.519 580.811 102.753 580.811 107.711V160.309C580.811 165.268 583.944 168.501 588.747 168.501H619.239C624.46 168.501 627.802 165.052 627.802 160.525Z" fill="#0B0827"></path>
    <path class="logo-text" d="M693.589 160.525C693.589 155.998 690.247 152.549 685.026 152.549H662.471V141.339H673.957C678.97 141.339 682.102 137.89 682.102 133.579C682.102 129.268 678.97 125.818 673.957 125.818H662.471V115.471H684.4C689.621 115.471 692.962 112.022 692.962 107.495C692.962 102.968 689.621 99.519 684.4 99.519H654.534C649.731 99.519 646.598 102.753 646.598 107.711V160.309C646.598 165.268 649.731 168.501 654.534 168.501H685.026C690.247 168.501 693.589 165.052 693.589 160.525Z" fill="#0B0827"></path>
    <path class="logo-text" fill-rule="evenodd" clip-rule="evenodd" d="M720.322 169.579C724.707 169.579 728.049 166.13 728.049 160.525V146.297H736.612L746.845 163.327C749.143 166.992 751.231 169.794 755.617 169.794C760.42 169.794 763.135 166.561 763.135 162.25C763.135 159.309 761.926 157.259 760.765 155.291L760.761 155.285C760.647 155.091 760.533 154.898 760.42 154.705L752.275 141.771C758.75 137.89 762.509 131.423 762.509 122.8C762.509 108.788 752.693 99.519 737.447 99.519H720.322C715.518 99.519 712.385 102.753 712.385 107.711V160.525C712.385 166.13 715.936 169.579 720.322 169.579ZM746.428 123.016C746.428 128.19 742.877 130.776 737.447 130.776H728.467V115.256H737.447C742.877 115.256 746.428 117.842 746.428 123.016Z" fill="#0B0827"></path>
    <path class="logo-text" d="M1090.64 143.926C1085.63 143.926 1082.5 140.477 1082.5 136.166C1082.5 131.854 1085.63 128.405 1090.64 128.405H1106.72C1111.53 128.405 1114.66 131.639 1114.66 136.597V142.417C1114.66 155.998 1104.84 169.794 1086.67 169.794C1066.83 169.794 1055.14 153.411 1055.14 134.01C1055.14 114.609 1066.83 98.2256 1086.67 98.2256C1094.82 98.2256 1101.71 101.028 1106.93 105.77C1109.23 107.711 1110.69 110.297 1110.69 113.747C1110.69 118.058 1107.77 121.507 1103.17 121.507C1100.46 121.507 1098.37 120.429 1096.49 118.489C1094.19 116.118 1091.06 114.393 1086.46 114.393C1076.86 114.393 1071.01 123.232 1071.01 134.226C1071.01 145.22 1076.65 154.058 1086.88 154.058C1092.94 154.058 1098.16 150.824 1098.58 143.926H1090.64Z" fill="#0B0827"></path>
    <path class="logo-text" d="M951.966 155.782C951.966 151.687 954.473 148.453 959.485 148.453C962.541 148.453 964.119 149.682 965.875 151.05C968.08 152.768 970.566 154.705 976.611 154.705C982.249 154.705 984.547 152.98 984.547 149.962C984.547 145.471 979.906 144.124 974.491 142.552C973.408 142.238 972.294 141.914 971.181 141.555C962.827 138.968 953.22 133.579 953.22 119.351C953.22 106.633 960.947 98.6567 976.819 98.6567C990.395 98.6567 998.331 104.693 998.331 111.591C998.331 115.687 995.616 118.705 991.021 118.705C988.46 118.705 987.019 117.726 985.446 116.659C983.556 115.375 981.474 113.962 977.028 113.962C971.598 113.962 969.301 115.902 969.301 119.136C969.301 124.247 975.009 125.992 980.584 127.696L980.787 127.759C989.768 130.561 1000.84 134.657 1000.84 149.747C1000.84 161.818 993.318 170.226 976.611 170.226C962.409 170.01 951.966 164.19 951.966 155.782Z" fill="#0B0827"></path>
    <path class="logo-text" fill-rule="evenodd" clip-rule="evenodd" d="M820.81 168.717H836.265C856.732 168.717 868.636 154.705 868.636 134.226C868.636 113.747 856.523 99.7346 836.265 99.7346H820.81C816.215 99.7346 812.874 103.184 812.874 107.926V160.525C812.874 165.267 816.215 168.717 820.81 168.717ZM852.555 134.226C852.555 146.944 847.125 152.764 836.682 152.764H828.746V115.687H836.682C846.916 115.687 852.555 121.507 852.555 134.226Z" fill="#0B0827"></path>
    <path class="logo-text" d="M934.006 160.741C934.006 156.214 930.664 152.765 925.443 152.765H902.887V141.555H914.374C919.386 141.555 922.519 138.106 922.519 133.794C922.519 129.483 919.386 126.034 914.374 126.034H902.887V115.687H924.816C930.037 115.687 933.379 112.238 933.379 107.711C933.379 103.184 930.037 99.7346 924.816 99.7346H894.951C890.147 99.7346 887.015 102.968 887.015 107.926V160.525C887.015 165.483 890.147 168.717 894.951 168.717H925.443C930.664 168.717 934.006 165.268 934.006 160.741Z" fill="#0B0827"></path>
    <path class="logo-text" d="M1020.68 160.741C1020.68 166.345 1024.23 169.794 1028.61 169.794C1033 169.794 1036.55 166.345 1036.55 160.741V107.711C1036.55 102.106 1033 98.6567 1028.61 98.6567C1024.23 98.6567 1020.68 102.106 1020.68 107.711V160.741Z" fill="#0B0827"></path>
    <path class="logo-text" d="M1171.67 107.711V117.627C1171.67 124.741 1171.88 132.285 1172.51 139.615C1168.96 133.579 1165.62 128.621 1162.07 123.663L1147.03 103.399C1144.73 100.166 1142.64 98.6567 1139.51 98.6567C1134.92 98.6567 1131.78 101.89 1131.78 107.064V160.741C1131.78 166.345 1135.34 169.794 1139.72 169.794C1144.11 169.794 1147.66 166.345 1147.66 160.741V150.824C1147.66 143.926 1147.45 136.381 1146.82 128.836C1150.37 134.872 1153.71 139.83 1157.26 144.788L1172.3 165.052C1174.6 168.285 1176.69 169.794 1179.82 169.794C1184.41 169.794 1187.55 166.561 1187.55 161.387V107.711C1187.55 102.106 1184 98.6567 1179.61 98.6567C1175.23 98.6567 1171.67 102.106 1171.67 107.711Z" fill="#0B0827"></path>
    <path class="logo-text" d="M1234.82 134.01C1234.82 114.609 1246.51 98.2256 1266.36 98.2256C1274.5 98.2256 1281.39 101.028 1286.61 105.771C1288.91 107.711 1290.37 110.297 1290.37 113.747C1290.37 118.058 1287.45 121.507 1282.85 121.507C1280.14 121.507 1278.05 120.429 1276.17 118.489C1273.87 116.118 1270.74 114.393 1266.15 114.393C1256.54 114.393 1250.69 123.232 1250.69 134.226C1250.69 145.22 1256.54 154.058 1266.15 154.058C1270.53 154.058 1273.87 152.118 1276.17 149.962C1278.05 148.022 1280.14 146.944 1282.85 146.944C1287.24 146.944 1290.37 150.393 1290.37 154.705C1290.37 158.154 1288.7 160.741 1286.61 162.681C1281.39 167.423 1274.5 170.226 1266.36 170.226C1246.51 169.794 1234.82 153.411 1234.82 134.01Z" fill="#0B0827"></path>
    <path class="logo-text" d="M1347.18 152.549C1352.4 152.549 1355.74 155.998 1355.74 160.525C1355.74 165.052 1352.4 168.501 1347.18 168.501H1318.36C1313.76 168.501 1310.42 165.052 1310.42 160.309V107.495C1310.42 101.89 1313.97 98.4412 1318.36 98.4412C1322.74 98.4412 1326.29 101.89 1326.29 107.495V152.549H1347.18Z" fill="#0B0827"></path>
    <path class="logo-text" d="M1370.15 107.279V139.184C1370.15 157.507 1380.6 169.794 1397.72 169.794C1414.43 169.794 1424.87 157.507 1424.87 139.184V107.279C1424.87 101.675 1421.32 98.2256 1416.93 98.2256C1412.55 98.2256 1409 101.675 1409 107.279V138.537C1409 147.591 1405.45 153.627 1397.51 153.627C1389.37 153.627 1386.03 147.591 1386.03 138.537V107.279C1386.03 101.675 1382.47 98.2256 1378.09 98.2256C1373.7 98.2256 1370.15 101.675 1370.15 107.279Z" fill="#0B0827"></path>
    <path class="logo-text" fill-rule="evenodd" clip-rule="evenodd" d="M1494.63 149.747C1494.63 161.818 1486.69 168.717 1468.94 168.717H1452.23C1447.43 168.717 1444.29 165.483 1444.29 160.525V107.926C1444.29 102.968 1447.43 99.7346 1452.23 99.7346H1466.64C1482.93 99.7346 1491.7 107.495 1491.7 119.136C1491.7 127.112 1487.94 130.992 1482.3 133.148C1488.99 134.441 1494.63 139.399 1494.63 149.747ZM1467.68 126.465C1472.28 126.465 1475.41 124.525 1475.41 120.645C1475.41 116.764 1472.28 115.04 1467.68 115.04H1460.17V126.465H1467.68ZM1469.56 152.98C1474.79 152.98 1478.13 151.04 1478.13 146.729C1478.13 142.417 1474.79 140.477 1469.56 140.477H1460.38V152.98H1469.56Z" fill="#0B0827"></path>
    <path d="M323.967 226.164L323.689 226.025L290.833 205.717L290.276 205.439L291.39 203.631L292.225 202.24L293.896 199.597L297.655 193.477L305.033 181.237L307.4 177.204L310.741 171.64C311.855 169.832 310.602 167.467 308.375 167.467L299.604 167.189V149.663C299.604 67.0425 232.638 0 149.802 0C67.1045 0 0 67.0425 0 149.663C0 189.444 15.4535 225.608 40.7918 252.313C46.2214 258.155 51.5118 264.136 56.663 270.256C64.3201 279.297 75.7362 285 88.4053 285H147.992C171.103 285 190.594 266.501 190.594 243.411C190.594 222.687 175.558 205.578 155.649 202.379C151.055 192.782 142.841 185.41 132.956 181.794C131.842 181.376 130.729 180.959 129.615 180.264C127.526 178.873 125.717 177.343 123.907 175.674C117.224 168.997 113.187 159.817 113.187 149.663C113.187 139.51 117.224 130.329 123.907 123.653C130.589 116.977 139.778 112.943 149.941 112.943C160.104 112.943 169.293 116.977 175.975 123.653C182.658 130.329 186.695 139.51 186.695 149.663V167.189H177.924C175.279 167.189 173.609 170.11 175.001 172.474L239.739 279.715C241.131 281.94 244.333 281.94 245.725 279.715L249.066 274.29L250.18 272.482L256.167 262.467L259.369 257.182L260.9 254.678L263.128 250.922L307.4 278.324C308.653 279.158 310.463 278.741 311.159 277.489L315.614 270.395L317.424 267.474L317.702 267.057L326.195 253.009L327.865 250.366L336.079 236.735C336.915 235.483 336.497 233.675 335.105 232.98L323.967 226.164Z" fill="#0B0827"></path>
    <path class="arc--blue" d="M201.314 148.551V149.663V167.189H219.412V149.663C219.412 130.469 211.616 113.082 199.086 100.564C186.417 88.0455 169.154 80.2563 149.941 80.2563C130.729 80.2563 113.326 88.0455 100.796 100.564C88.2661 113.221 80.4698 130.469 80.4698 149.663C80.4698 164.129 84.9248 177.621 92.582 188.748C97.3155 184.854 102.884 181.933 108.871 180.403C107.757 178.873 106.643 177.204 105.669 175.535C105.53 175.256 105.39 175.117 105.251 174.839C104.137 172.892 103.163 170.944 102.327 168.858C102.188 168.58 102.188 168.302 102.049 168.024C101.631 167.05 101.214 165.937 100.935 164.824C100.657 163.712 100.378 162.599 100.1 161.625C100.1 161.347 99.9607 161.069 99.9607 160.791C99.4038 158.565 99.1254 156.34 98.9862 153.975C98.9862 153.697 98.9862 153.419 98.9862 153.141C98.8469 152.028 98.8469 150.776 98.8469 149.663C98.8469 121.289 121.818 98.3383 150.219 98.3383C177.924 98.3383 200.617 120.732 201.314 148.551Z" fill="#6000FF"></path>
    <path class="arc--green" d="M81.7227 202.379C82.0012 201.684 82.4188 201.127 82.6973 200.571C71.9772 186.383 65.5731 168.858 65.5731 149.802C65.5731 103.345 103.302 65.6513 149.802 65.6513C196.302 65.6513 234.03 103.345 234.03 149.802V167.328H252.129V149.802C252.129 121.566 240.713 95.9734 222.197 77.4742C203.68 58.9749 178.064 47.5693 149.802 47.5693C121.54 47.5693 95.9233 58.9749 77.4069 77.4742C58.8905 95.9734 47.4743 121.566 47.4743 149.802C47.4743 171.64 54.2962 191.808 65.9907 208.499C70.7243 205.439 76.0147 203.353 81.7227 202.379Z" fill="#00FFC3"></path>
    <path class="arc--red" d="M149.802 32.8257C214.4 32.8257 266.887 85.1244 266.887 149.802V167.328H284.985V149.802C284.985 112.526 269.81 78.7261 245.447 54.385C220.944 29.9048 187.252 14.8828 149.941 14.8828C112.491 14.7437 78.7991 29.7657 54.2962 54.2459C29.7933 78.7261 14.7574 112.386 14.7574 149.663C14.7574 183.184 27.0088 213.785 47.1959 237.43C48.1704 230.337 50.9549 223.799 55.1315 218.375C41.0702 199.041 32.8561 175.395 32.8561 149.663C32.8561 85.1244 85.2032 32.8257 149.802 32.8257Z" fill="#FF0072"></path>
    <path fill-rule="evenodd" clip-rule="evenodd" d="M306.286 240.352C307.4 242.299 309.767 242.855 311.716 241.742C313.247 240.63 313.943 238.682 313.387 237.152L317.145 239.517L312.83 246.75C311.577 245.915 309.906 245.776 308.514 246.611C306.565 247.723 306.008 250.088 307.122 252.035C307.539 252.592 308.096 253.148 308.653 253.426L304.894 259.685L303.502 258.851C303.571 258.851 303.606 258.816 303.641 258.781C303.676 258.746 303.711 258.712 303.78 258.712C305.729 257.599 306.286 255.234 305.172 253.287C304.059 251.34 301.692 250.783 299.743 251.896C298.49 252.731 297.794 253.983 297.794 255.373L293.617 252.731C293.687 252.661 293.756 252.626 293.826 252.592C293.896 252.557 293.965 252.522 294.035 252.453C295.984 251.34 296.541 248.975 295.427 247.028C294.313 245.081 291.946 244.524 289.997 245.637C288.605 246.472 288.048 247.862 288.048 249.253L283.732 246.611C283.802 246.541 283.906 246.506 284.011 246.472C284.115 246.437 284.22 246.402 284.289 246.332C286.238 245.22 286.795 242.855 285.682 240.908C284.568 238.961 282.201 238.404 280.252 239.517C278.86 240.351 278.164 241.742 278.303 243.272L273.848 240.491C273.987 240.351 274.265 240.212 274.544 240.073C276.493 238.961 277.05 236.596 275.936 234.649C274.822 232.701 272.456 232.145 270.506 233.258C269.114 234.092 268.418 235.622 268.557 237.152L263.824 234.231C264.241 234.092 264.52 233.953 264.798 233.814C266.747 232.701 267.304 230.337 266.191 228.39C265.077 226.442 262.71 225.886 260.761 226.999C259.786 227.555 259.09 228.529 258.951 229.641L256.863 232.98C255.61 231.589 253.521 231.31 251.851 232.284C249.902 233.397 249.345 235.761 250.459 237.709C251.015 238.682 251.851 239.239 252.825 239.517L250.459 243.412L247.117 248.836C246.004 248.419 244.751 248.419 243.637 249.114C241.688 250.227 241.131 252.592 242.245 254.539L243.08 255.373L242.523 256.208L238.346 249.392C239.878 248.141 240.295 245.915 239.321 244.246C238.207 242.577 236.119 241.882 234.309 242.716L227.626 231.728C229.158 230.476 229.575 228.25 228.601 226.581C227.626 224.912 225.399 224.217 223.589 225.051L216.906 214.063C218.438 212.811 218.995 210.725 217.881 208.917C216.906 207.248 214.679 206.552 212.869 207.387L206.186 196.398C207.718 195.286 208.275 193.06 207.161 191.252C206.186 189.583 203.959 188.887 202.149 189.722L200.2 186.523C201.314 187.079 202.845 187.079 203.959 186.384C205.351 185.41 206.047 183.741 205.769 182.211H217.602C217.463 183.045 217.742 183.88 218.159 184.715C219.273 186.662 221.64 187.218 223.589 186.106C224.981 185.271 225.677 183.741 225.538 182.211H236.954C236.536 183.324 236.536 184.576 237.233 185.688C238.346 187.636 240.713 188.192 242.662 187.079C244.333 185.966 245.029 184.019 244.333 182.211H256.027C255.192 183.463 255.053 185.132 255.888 186.523C257.002 188.47 259.369 189.026 261.318 187.914C263.267 186.801 263.824 184.436 262.71 182.489C262.71 182.42 262.675 182.385 262.64 182.35C262.606 182.315 262.571 182.28 262.571 182.211H275.518C273.987 183.324 273.43 185.549 274.544 187.357C275.658 189.305 278.024 189.861 279.973 188.748C281.923 187.636 282.479 185.271 281.366 183.324C281.087 182.906 280.809 182.489 280.391 182.211H287.77L280.948 193.477C279.695 192.782 278.024 192.643 276.771 193.477C274.822 194.59 274.265 196.955 275.379 198.902C275.658 199.458 276.215 200.015 276.771 200.293L271.063 209.751C270.228 209.751 269.393 209.89 268.697 210.308C266.747 211.42 266.191 213.785 267.304 215.732C268.418 217.679 270.785 218.236 272.734 217.123C274.265 216.289 274.962 214.619 274.683 213.089L279.417 216.01C279.277 216.08 279.103 216.149 278.929 216.219C278.755 216.289 278.581 216.358 278.442 216.428C276.493 217.54 275.936 219.905 277.05 221.852C278.164 223.8 280.53 224.356 282.479 223.243C283.872 222.409 284.568 220.6 284.289 219.07L289.301 222.13C288.884 222.13 288.466 222.27 288.048 222.548C286.099 223.66 285.542 226.025 286.656 227.972C287.77 229.92 290.137 230.476 292.086 229.363C293.617 228.529 294.313 226.72 293.896 225.051L299.186 228.25C299.106 228.277 299.02 228.304 298.931 228.332C298.559 228.448 298.131 228.582 297.794 228.807C295.845 229.92 295.288 232.284 296.402 234.231C297.515 236.179 299.882 236.735 301.831 235.622C303.502 234.649 304.198 232.701 303.641 231.032L309.21 234.371C308.653 234.51 308.235 234.649 307.678 234.927C305.729 236.04 305.172 238.404 306.286 240.352ZM216.071 185.688C214.957 183.741 212.591 183.185 210.641 184.297C208.832 185.41 208.135 187.914 209.249 189.722C210.363 191.669 212.73 192.226 214.679 191.113C216.628 190 217.185 187.636 216.071 185.688ZM210.224 201.267C211.338 203.214 213.704 203.77 215.653 202.657C217.602 201.545 218.159 199.18 217.046 197.233C215.932 195.286 213.565 194.729 211.616 195.842C209.667 196.955 209.11 199.319 210.224 201.267ZM272.038 188.331C270.924 186.384 268.557 185.827 266.608 186.94C264.798 188.053 264.102 190.556 265.216 192.365C266.33 194.312 268.697 194.868 270.646 193.756C272.595 192.643 273.152 190.278 272.038 188.331ZM263.267 193.617C262.153 191.669 259.786 191.113 257.837 192.226C255.888 193.477 255.331 195.842 256.445 197.65C257.559 199.597 259.926 200.154 261.875 199.041C263.824 197.928 264.381 195.564 263.267 193.617ZM253.8 216.01C255.749 214.898 256.306 212.533 255.192 210.586C254.078 208.638 251.712 208.082 249.763 209.195C247.813 210.308 247.257 212.672 248.37 214.619C249.484 216.567 251.851 217.123 253.8 216.01ZM247.535 203.075C248.649 205.022 251.015 205.578 252.965 204.466C254.914 203.353 255.471 200.849 254.357 199.041C253.243 197.094 250.876 196.537 248.927 197.65C246.978 198.763 246.421 201.127 247.535 203.075ZM253.382 187.496C252.268 185.549 249.902 184.993 247.953 186.106C246.143 187.218 245.447 189.722 246.56 191.53C247.674 193.477 250.041 194.034 251.99 192.921C253.939 191.808 254.496 189.444 253.382 187.496ZM238.625 208.36C239.739 210.308 242.105 210.864 244.054 209.751C246.004 208.638 246.56 206.274 245.447 204.327C244.333 202.379 241.966 201.823 240.017 202.936C238.068 204.048 237.511 206.413 238.625 208.36ZM244.611 192.782C243.498 190.835 241.131 190.278 239.182 191.391C237.233 192.504 236.676 195.007 237.79 196.816C238.903 198.763 241.27 199.319 243.219 198.207C245.168 197.094 245.725 194.729 244.611 192.782ZM234.727 186.662C233.613 184.715 231.246 184.158 229.297 185.271C227.487 186.384 226.791 188.748 227.905 190.696C229.019 192.643 231.385 193.199 233.334 192.086C235.284 190.974 235.84 188.609 234.727 186.662ZM225.816 191.947C224.703 190 222.336 189.444 220.387 190.556C218.577 191.669 218.02 194.173 218.995 195.981C220.108 197.928 222.475 198.485 224.424 197.372C226.373 196.259 226.93 193.895 225.816 191.947ZM226.791 203.492C225.677 201.545 223.311 200.988 221.361 202.101C219.412 203.214 218.855 205.718 219.969 207.526C221.083 209.473 223.45 210.029 225.399 208.917C227.348 207.804 227.905 205.439 226.791 203.492ZM220.944 219.07C222.058 221.018 224.424 221.574 226.373 220.461C228.183 219.349 228.879 216.845 227.766 215.037C226.652 213.089 224.285 212.533 222.336 213.646C220.387 214.759 219.83 217.123 220.944 219.07ZM230.272 196.816C228.322 197.928 227.766 200.293 228.879 202.24C229.993 204.048 232.499 204.744 234.309 203.631C236.258 202.518 236.815 200.154 235.701 198.207C234.587 196.259 232.221 195.703 230.272 196.816ZM236.536 209.612C235.423 207.665 233.056 207.108 231.107 208.221C229.297 209.473 228.601 211.838 229.715 213.646C230.828 215.593 233.195 216.149 235.144 215.037C237.093 213.924 237.65 211.559 236.536 209.612ZM237.511 221.157C236.397 219.209 234.031 218.653 232.081 219.766C230.132 221.018 229.575 223.382 230.689 225.19C231.803 227.138 234.17 227.694 236.119 226.581C238.068 225.469 238.625 223.104 237.511 221.157ZM231.525 236.735C232.638 238.682 235.005 239.239 236.954 238.126C238.903 237.013 239.46 234.649 238.346 232.701C237.233 230.754 234.866 230.198 232.917 231.311C230.968 232.423 230.411 234.788 231.525 236.735ZM240.992 214.48C239.043 215.593 238.486 217.958 239.599 219.905C240.713 221.852 243.08 222.409 245.029 221.296C246.978 220.183 247.535 217.819 246.421 215.871C245.307 213.924 242.941 213.368 240.992 214.48ZM247.257 227.416C246.143 225.469 243.776 224.912 241.827 226.025C239.878 227.138 239.321 229.641 240.435 231.45C241.548 233.397 243.915 233.953 245.864 232.84C247.813 231.728 248.37 229.363 247.257 227.416ZM241.409 242.994C242.523 244.942 244.89 245.498 246.839 244.385C248.649 243.272 249.345 240.769 248.231 238.961C247.117 237.013 244.751 236.457 242.801 237.57C240.852 238.682 240.295 241.047 241.409 242.994ZM249.345 226.164C250.459 228.111 252.825 228.668 254.774 227.555C256.724 226.442 257.28 223.939 256.167 222.13C255.053 220.183 252.686 219.627 250.737 220.739C248.788 221.852 248.231 224.217 249.345 226.164ZM264.102 205.161C262.988 203.214 260.622 202.658 258.673 203.77C256.724 205.022 256.167 207.387 257.28 209.195C258.394 211.142 260.761 211.698 262.71 210.586C264.659 209.473 265.216 207.108 264.102 205.161ZM258.255 220.739C259.369 222.687 261.735 223.243 263.685 222.13C265.494 221.018 266.191 218.653 265.077 216.706C263.963 214.759 261.596 214.202 259.647 215.315C257.698 216.428 257.141 218.792 258.255 220.739ZM267.583 198.485C265.634 199.597 265.077 201.962 266.191 203.909C267.304 205.857 269.81 206.413 271.62 205.3C273.569 204.188 274.126 201.823 273.012 199.876C271.899 197.928 269.532 197.372 267.583 198.485ZM268 226.999C269.114 228.946 271.481 229.502 273.43 228.39C275.379 227.277 275.936 224.773 274.822 222.965C273.708 221.018 271.342 220.461 269.393 221.574C267.444 222.687 266.887 225.051 268 226.999ZM277.746 233.258C278.86 235.205 281.226 235.761 283.176 234.649C285.125 233.536 285.682 231.032 284.568 229.224C283.454 227.277 281.087 226.72 279.138 227.833C277.189 228.946 276.632 231.31 277.746 233.258ZM287.631 239.378C288.744 241.325 291.111 241.882 293.06 240.769C294.87 239.656 295.427 237.291 294.452 235.344C293.339 233.397 290.972 232.84 289.023 233.953C287.074 235.066 286.517 237.431 287.631 239.378ZM297.376 245.637C298.49 247.584 300.857 248.141 302.806 247.028C304.616 245.915 305.312 243.551 304.198 241.603C303.084 239.656 300.717 239.1 298.768 240.212C296.819 241.325 296.262 243.69 297.376 245.637Z" fill="white"></path>
    <path fill-rule="evenodd" clip-rule="evenodd" d="M93.8349 211.559L92.1643 216.288L87.1523 216.567C72.6733 217.262 61.3964 229.085 61.3964 243.411C61.3964 245.776 61.6749 248.141 62.371 250.227C62.6494 250.088 62.928 250.088 63.3455 250.088C65.2946 250.088 66.9653 251.618 66.9653 253.565C66.9653 254.956 66.2692 256.069 65.1554 256.764C69.1928 263.719 76.0146 268.587 84.2287 269.978C84.2287 269.839 84.1939 269.735 84.1591 269.63C84.1243 269.526 84.0895 269.422 84.0895 269.283C84.0895 267.335 85.6209 265.666 87.57 265.666C89.5191 265.666 91.1897 267.196 91.1897 269.143C91.1897 269.561 91.0505 269.978 90.9113 270.395H100.239C100.1 269.978 99.9607 269.561 99.9607 269.004C99.9607 267.057 101.492 265.388 103.441 265.388C105.39 265.388 107.061 266.918 107.061 268.865C107.061 269.422 106.922 269.978 106.782 270.395H116.389C116.11 269.839 115.971 269.283 115.971 268.726C115.971 266.779 117.503 265.11 119.452 265.11C121.401 265.11 123.071 266.64 123.071 268.587C123.071 269.283 122.932 269.839 122.654 270.395H132.538C132.121 269.839 131.981 269.143 131.842 268.448C131.842 266.501 133.374 264.832 135.323 264.832C137.272 264.832 138.943 266.362 138.943 268.309C138.943 269.143 138.664 269.839 138.246 270.395H148.549C147.992 269.839 147.713 269.004 147.713 268.17C147.713 266.223 149.245 264.553 151.194 264.553C153.143 264.553 154.814 266.083 154.814 268.031C154.814 268.726 154.675 269.283 154.396 269.839C162.749 268.031 169.71 262.467 173.33 254.956C172.216 254.4 171.52 253.287 171.381 251.896C171.381 249.949 172.912 248.28 174.862 248.28H175.418C175.697 246.75 175.836 245.08 175.836 243.411C175.836 228.946 164.559 217.262 150.08 216.567L145.068 216.288L143.398 211.559C139.778 200.988 129.754 193.895 118.616 193.895C107.479 193.895 97.4547 200.988 93.8349 211.559ZM71.1419 244.663C73.091 244.663 74.7617 246.193 74.7617 248.141C74.7617 250.088 73.2302 251.757 71.2811 251.757C69.332 251.757 67.6614 250.227 67.6614 248.279C67.6614 248.158 67.6674 248.038 67.6791 247.92C67.8537 246.131 69.3141 244.663 71.1419 244.663ZM67.8008 258.882C67.8009 258.895 67.8011 258.907 67.8013 258.919C67.8009 258.943 67.8006 258.966 67.8006 258.99C67.8006 260.937 69.4713 262.467 71.4204 262.467C73.3695 262.467 74.9009 260.798 74.9009 258.851C74.9009 258.828 74.9007 258.806 74.9003 258.784C74.9007 258.76 74.9009 258.736 74.9009 258.712C74.9009 256.764 73.2302 255.234 71.2811 255.234C69.332 255.234 67.8006 256.903 67.8006 258.851C67.8006 258.861 67.8007 258.872 67.8008 258.882ZM75.7466 253.149C75.8836 251.323 77.3608 249.81 79.2167 249.81C80.9221 249.81 82.4145 250.981 82.7609 252.578C82.8104 252.807 82.8365 253.044 82.8365 253.287C82.8365 254.991 81.664 256.482 80.0651 256.828C79.8367 256.877 79.5993 256.903 79.3557 256.903C77.4999 257.036 75.8966 255.528 75.7476 253.703C75.7401 253.612 75.7362 253.519 75.7362 253.426C75.7362 253.333 75.7397 253.24 75.7466 253.149ZM79.4952 267.613C77.5461 267.613 75.8754 266.083 75.8754 264.136C75.8754 262.189 77.4069 260.52 79.356 260.52C81.1844 260.389 82.7676 261.85 82.9566 263.639C82.9692 263.756 82.9757 263.876 82.9757 263.997C82.9757 264.119 82.9697 264.239 82.958 264.357C82.7833 266.146 81.323 267.613 79.4952 267.613ZM87.0131 244.385C88.9622 244.385 90.6329 245.915 90.6329 247.862C90.6329 249.566 89.4604 251.057 87.8615 251.403C87.6331 251.453 87.396 251.479 87.1523 251.479C87.0305 251.479 86.9098 251.473 86.7905 251.461C85.0009 251.286 83.5326 249.827 83.5326 248.001C83.5326 247.92 83.5353 247.838 83.5406 247.758C83.6618 245.917 85.1458 244.385 87.0131 244.385ZM83.811 258.572C83.811 258.595 83.8113 258.617 83.8117 258.64C83.8112 258.664 83.811 258.687 83.811 258.712C83.811 260.659 85.4816 262.189 87.4307 262.189C89.3798 262.189 90.9113 260.52 90.9113 258.572L90.9097 258.551C90.9108 258.512 90.9113 258.473 90.9113 258.433C90.9113 256.486 89.2406 254.956 87.2916 254.956C85.3425 254.956 83.811 256.625 83.811 258.572ZM163.445 257.181C163.445 257.205 163.446 257.228 163.446 257.251C163.446 257.274 163.445 257.297 163.445 257.321C163.445 259.268 165.116 260.798 167.065 260.798C169.014 260.798 170.546 259.129 170.546 257.181L170.544 257.159C170.545 257.12 170.546 257.082 170.546 257.042C170.546 255.095 168.875 253.565 166.926 253.565C164.977 253.565 163.445 255.234 163.445 257.181ZM166.787 242.994C168.736 242.994 170.406 244.524 170.406 246.471C170.406 248.419 168.875 250.088 166.926 250.088C166.902 250.088 166.878 250.088 166.854 250.087C166.839 250.087 166.824 250.088 166.808 250.088L166.787 250.088C164.838 250.088 163.306 248.558 163.167 246.61C163.167 244.663 164.698 242.994 166.647 242.994C166.686 242.994 166.724 242.995 166.762 242.996L166.787 242.994ZM159.13 266.222C157.181 266.222 155.51 264.692 155.51 262.745C155.51 260.798 157.041 259.129 158.99 259.129C160.815 258.999 162.396 260.453 162.59 262.237C162.603 262.358 162.61 262.481 162.61 262.606C162.61 262.728 162.604 262.848 162.592 262.966C162.418 264.755 160.957 266.222 159.13 266.222ZM158.851 248.419C160.557 248.419 162.049 249.59 162.395 251.188C162.445 251.416 162.471 251.653 162.471 251.896C162.471 253.843 160.939 255.512 158.99 255.512C157.041 255.651 155.371 253.982 155.371 252.035C155.371 251.913 155.377 251.793 155.388 251.675C155.563 249.887 157.023 248.419 158.851 248.419ZM147.435 257.504L147.436 257.528C147.436 257.539 147.435 257.55 147.435 257.561C147.435 257.574 147.435 257.586 147.435 257.599C147.435 259.546 149.106 261.076 151.055 261.076C152.213 261.076 153.223 260.487 153.853 259.601C154.328 258.99 154.594 258.205 154.535 257.321C154.535 255.373 152.865 253.843 150.916 253.843C148.966 253.843 147.435 255.512 147.435 257.46C147.435 257.475 147.435 257.489 147.435 257.504ZM150.776 243.272C152.725 243.272 154.396 244.802 154.396 246.75C154.396 248.453 153.224 249.944 151.625 250.29C151.396 250.34 151.159 250.366 150.916 250.366C148.966 250.366 147.296 248.836 147.296 246.889C147.296 246.799 147.299 246.711 147.305 246.623C147.437 244.792 148.917 243.272 150.776 243.272ZM146.739 262.884C146.739 264.588 145.566 266.079 143.968 266.425C143.739 266.475 143.502 266.501 143.258 266.501C141.309 266.501 139.639 264.971 139.639 263.023C139.639 261.076 141.17 259.407 143.119 259.407C143.241 259.398 143.362 259.397 143.481 259.402C145.271 259.478 146.739 261.059 146.739 262.884ZM142.98 248.697C144.929 248.697 146.6 250.227 146.6 252.174C146.6 254.121 145.068 255.791 143.119 255.791C143.095 255.791 143.071 255.79 143.047 255.79C143.025 255.79 143.002 255.791 142.98 255.791C141.031 255.93 139.499 254.261 139.36 252.313C139.36 250.366 140.892 248.697 142.841 248.697C142.879 248.697 142.918 248.697 142.956 248.699L142.98 248.697ZM131.564 257.767C131.564 257.78 131.564 257.794 131.565 257.807C131.564 257.83 131.564 257.854 131.564 257.877C131.564 259.824 133.235 261.354 135.184 261.354C137.133 261.354 138.664 259.685 138.664 257.738C138.664 257.716 138.664 257.693 138.663 257.671C138.664 257.647 138.664 257.623 138.664 257.599C138.664 255.651 136.993 254.121 135.044 254.121C133.095 254.121 131.564 255.791 131.564 257.738C131.564 257.748 131.564 257.757 131.564 257.767ZM134.905 243.55C136.854 243.55 138.525 245.081 138.525 247.028C138.525 248.975 136.993 250.644 135.044 250.644C133.095 250.644 131.425 249.114 131.425 247.167C131.354 246.173 131.754 245.287 132.423 244.64C133.05 243.973 133.925 243.55 134.905 243.55ZM130.729 263.162C130.729 264.866 129.556 266.357 127.957 266.703C127.729 266.753 127.492 266.779 127.248 266.779C125.299 266.779 123.628 265.249 123.628 263.302C123.628 261.354 125.16 259.685 127.109 259.685C129.197 259.546 130.729 261.215 130.729 263.162ZM126.97 248.975C128.675 248.975 130.167 250.146 130.514 251.744C130.563 251.972 130.589 252.209 130.589 252.452C130.589 254.4 129.057 256.069 127.108 256.069C125.159 256.208 123.489 254.539 123.489 252.591C123.489 250.644 125.02 248.975 126.97 248.975ZM115.553 258.016C115.553 258.99 115.971 259.859 116.633 260.485C117.303 261.193 118.268 261.632 119.312 261.632C121.261 261.632 122.793 259.963 122.793 258.016C122.728 257.102 122.355 256.249 121.777 255.616C121.105 254.868 120.112 254.4 119.034 254.4C117.085 254.4 115.553 256.069 115.553 258.016ZM115.422 247.202C115.543 245.361 117.027 243.829 118.895 243.829C120.844 243.829 122.514 245.359 122.514 247.306C122.514 249.01 121.342 250.501 119.743 250.847C119.515 250.896 119.278 250.922 119.034 250.922C118.912 250.922 118.791 250.916 118.672 250.905C116.883 250.729 115.414 249.271 115.414 247.445C115.414 247.406 115.415 247.367 115.416 247.329C115.417 247.286 115.419 247.244 115.422 247.202ZM111.377 267.057C109.428 267.057 107.757 265.527 107.757 263.58C107.757 261.632 109.288 259.963 111.238 259.963C113.062 259.833 114.643 261.288 114.837 263.072C114.85 263.193 114.857 263.316 114.857 263.441C114.857 263.562 114.851 263.682 114.84 263.801C114.665 265.589 113.205 267.057 111.377 267.057ZM111.098 249.253C113.047 249.253 114.718 250.783 114.718 252.731C114.718 254.434 113.546 255.925 111.947 256.271C111.718 256.321 111.481 256.347 111.237 256.347C109.382 256.479 107.778 254.972 107.629 253.147C107.622 253.055 107.618 252.963 107.618 252.87C107.618 252.773 107.622 252.676 107.629 252.581C107.771 250.76 109.246 249.253 111.098 249.253ZM91.6074 253.148C91.6074 251.201 93.1388 249.531 95.0879 249.531C96.7932 249.532 98.2857 250.703 98.6321 252.3C98.6816 252.528 98.7077 252.765 98.7077 253.009C98.7077 254.713 97.5352 256.204 95.9363 256.55C95.7079 256.599 95.4708 256.625 95.2272 256.625C93.3999 256.756 91.9397 255.297 91.6496 253.509C91.6303 253.39 91.6161 253.27 91.6074 253.148ZM98.9861 263.719C98.9861 265.423 97.8136 266.914 96.2148 267.26C95.9863 267.309 95.7492 267.335 95.5056 267.335C93.5565 267.335 91.8858 265.805 91.8858 263.858C91.8858 261.911 93.4173 260.242 95.3664 260.242C95.61 260.224 95.8471 260.235 96.0758 260.271C97.5622 260.506 98.6925 261.808 98.9439 263.357C98.9633 263.477 98.9774 263.597 98.9861 263.719ZM99.6822 258.294C99.6822 258.317 99.6825 258.34 99.6829 258.363C99.6825 258.387 99.6823 258.41 99.6823 258.433C99.6823 260.381 101.353 261.911 103.302 261.911C105.251 261.911 106.783 260.242 106.783 258.294C106.783 258.284 106.782 258.273 106.782 258.263C106.782 258.251 106.782 258.239 106.782 258.227C106.782 258.203 106.782 258.179 106.782 258.155C106.782 256.208 105.112 254.678 103.163 254.678C101.214 254.678 99.6822 256.347 99.6822 258.294ZM103.024 244.107C104.729 244.107 106.221 245.278 106.568 246.876C106.617 247.104 106.643 247.341 106.643 247.584C106.643 249.531 105.111 251.201 103.162 251.201C101.213 251.2 99.543 249.67 99.543 247.723C99.543 247.602 99.549 247.481 99.5607 247.363C99.7354 245.575 101.196 244.107 103.024 244.107Z" fill="white"></path>
</svg>