
    <svg
      xmlns="http://www.w3.org/2000/svg"
      width="315"
      height="58"
      fill="none"
      viewBox="0 0 315 58"
    >
      <path
        fill="#fff"
        d="M10.688 10.888c0-9.408.128-9.664 2.496-9.664h2.496c8 0 11.2 3.264 11.2 9.92 0 7.168-5.888 10.112-10.816 10.112-2.496 0-4.16 0-5.376.064V10.888zm-2.24 33.984c.896 0 5.184.128 6.976.128.512 0 .512-.576 0-.576h-1.28c-3.136 0-3.456-.32-3.456-16V21.96h2.624c6.4.192 8.256.96 13.056 12.096 2.24 5.12 3.968 8.128 5.312 9.664 1.024 1.216 1.792 1.536 3.264 1.536.96 0 2.176-.256 4.416-.256h2.304c.704 0 .576-.576 0-.576h-.448c-3.84 0-5.12-1.152-10.432-12.416-4.096-8.384-6.4-10.304-11.84-10.496 6.912-1.216 13.632-4.928 13.632-10.368 0-6.848-5.312-10.496-16.384-10.496-1.024 0-7.04.192-7.872.192-.96 0-5.312-.192-7.104-.192-.512 0-.512.576 0 .576h1.152c3.136 0 3.456.32 3.456 16v8.512c0 2.944 0 9.28-.192 12.8-.192 3.52-.32 4.8-1.28 5.76-.448.064-1.344.128-2.944.128-.512 0-.512.576 0 .576s6.08-.128 7.04-.128zM63.462 22.216c-4.16 0-8.512.256-15.744.256 1.728-5.824 5.952-8.704 11.52-8.704 4.928 0 7.36 3.456 7.36 5.824 0 .96-.192 1.6-.576 2.048-.192.192-1.6.576-2.56.576zm-4.16 23.424c9.664 0 16.384-8.128 19.777-16 .32-.704-.128-.896-.448-.128-3.52 7.616-8.257 12.416-16.065 12.416-8.64 0-15.488-6.144-15.488-14.016 0-1.728.192-3.328.512-4.928h21.888c1.985 0 2.497-.896 2.689-1.984.32-2.944-1.856-8.64-11.136-8.64-8.896 0-17.792 8.32-17.792 17.92 0 8.896 6.272 15.36 16.064 15.36z"
      ></path>
      <path
        fill="#fff"
        d="M75.727 45c1.92 0 5.248-.128 6.272-.128 1.023 0 4.736.128 5.248.128.511 0 .511-.576 0-.576H83.47v-24.32c2.88-4.032 5.183-5.824 9.215-5.824 3.904 0 7.296 2.496 7.296 10.432v12.8c0 6.784 0 6.912-3.903 6.912-.512 0-.512.576 0 .576 1.92 0 5.44-.128 6.4-.128 1.024 0 5.632.128 6.144.128.512 0 .512-.576 0-.576-3.136 0-3.84-.192-3.84-2.624V20.232c2.368-3.264 4.48-5.952 9.216-5.952 3.904 0 8 2.496 8 10.432v12.8c0 6.784-.064 6.912-4.416 6.912-.512 0-.512.576 0 .576 1.92 0 5.568-.128 6.592-.128s5.376.128 5.888.128c.512 0 .512-.576 0-.576-3.136 0-3.264-.192-3.264-2.624V25.352c0-10.048-5.12-12.992-10.688-12.992-5.056 0-8.32 2.688-11.584 7.232-1.728-5.632-5.889-7.232-9.728-7.232-4.928 0-8.257 2.624-11.393 7.04-.064-2.752-1.344-5.184-2.56-6.4-.192-.128-.32-.128-.383-.064-1.088 1.088-3.456 2.24-4.672 2.688-.192.064-.192.192 0 .384 1.472 1.344 2.944 3.008 2.944 4.864v16.512c0 6.912-.129 7.04-3.008 7.04-.513 0-.513.576 0 .576zM153.463 22.216c-4.16 0-8.512.256-15.744.256 1.728-5.824 5.952-8.704 11.52-8.704 4.928 0 7.36 3.456 7.36 5.824 0 .96-.192 1.6-.576 2.048-.192.192-1.6.576-2.56.576zm-4.16 23.424c9.664 0 16.384-8.128 19.776-16 .32-.704-.128-.896-.448-.128-3.52 7.616-8.256 12.416-16.064 12.416-8.64 0-15.488-6.144-15.488-14.016 0-1.728.192-3.328.512-4.928h21.888c1.984 0 2.496-.896 2.688-1.984.32-2.944-1.856-8.64-11.136-8.64-8.896 0-17.792 8.32-17.792 17.92 0 8.896 6.272 15.36 16.064 15.36z"
      ></path>
      <path
        fill="#fff"
        d="M165.727 45c1.92 0 5.248-.128 6.272-.128s4.736.128 5.248.128c.512 0 .512-.576 0-.576h-3.776v-24.32c2.88-4.032 5.184-5.824 9.216-5.824 3.904 0 7.296 2.496 7.296 10.432v12.8c0 6.784 0 6.912-3.904 6.912-.512 0-.512.576 0 .576 1.92 0 5.44-.128 6.4-.128 1.024 0 5.632.128 6.144.128.512 0 .512-.576 0-.576-3.136 0-3.84-.192-3.84-2.624V20.232c2.368-3.264 4.48-5.952 9.216-5.952 3.904 0 8 2.496 8 10.432v12.8c0 6.784-.064 6.912-4.416 6.912-.512 0-.512.576 0 .576 1.92 0 5.568-.128 6.592-.128s5.376.128 5.888.128c.512 0 .512-.576 0-.576-3.136 0-3.264-.192-3.264-2.624V25.352c0-10.048-5.12-12.992-10.688-12.992-5.056 0-8.32 2.688-11.584 7.232-1.728-5.632-5.888-7.232-9.728-7.232-4.928 0-8.256 2.624-11.392 7.04-.064-2.752-1.344-5.184-2.56-6.4-.192-.128-.32-.128-.384-.064-1.088 1.088-3.456 2.24-4.672 2.688-.192.064-.192.192 0 .384 1.472 1.344 2.944 3.008 2.944 4.864v16.512c0 6.912-.128 7.04-3.008 7.04-.512 0-.512.576 0 .576zM240.327 44.936c-7.424 0-11.648-8.448-11.648-16.384 0-9.344 3.328-15.552 10.816-15.552 7.04 0 11.328 8.576 11.328 16.576 0 9.536-3.648 15.36-10.496 15.36zm-1.088.704c9.728 0 16.768-8.832 16.768-17.088 0-9.856-6.72-16.192-15.744-16.192-9.92 0-16.896 8.064-16.896 17.28 0 9.664 6.848 16 15.872 16zM272.01 13.448c-1.728 1.216-3.456 2.624-4.224 5.44-.256-2.496-1.664-4.864-2.752-5.888-.192-.128-.32-.128-.384-.064-1.088 1.088-3.2 2.24-4.416 2.688-.192.064-.192.192 0 .384 1.472 1.344 2.944 3.008 2.944 4.864v16.512c0 6.656-.512 7.04-3.584 7.04-.512 0-.512.576 0 .576 1.856 0 5.504-.128 6.528-.128s5.184.128 5.696.128c.512 0 .512-.576 0-.576h-3.904v-21.44c0-5.44.448-6.144 5.056-6.144h2.368c2.24 0 3.2-2.304 3.2-3.328 0-.832-1.344-1.152-2.88-1.152a6.6 6.6 0 00-3.648 1.088z"
      ></path>
      <path
        fill="#fff"
        d="M286.676 53.704c-2.368 0-3.648-1.856-5.888-1.856-2.048 0-3.52 1.92-3.52 2.944 0 1.216 1.792 2.496 5.312 2.496 6.208 0 10.112-3.584 13.376-11.072l10.24-23.04c2.752-6.144 5.248-9.664 8.256-9.6.448 0 .448-.576 0-.576-.576 0-4.736.128-5.76.128-.832 0-4.224-.128-6.016-.128-.512 0-.512.576 0 .576 4.096 0 5.696 3.072 2.944 9.216l-7.168 16.128-8.512-18.88c-2.56-5.632-2.24-6.464 1.6-6.464.512 0 .512-.576 0-.576-1.664 0-6.016.128-6.848.128-1.024 0-5.824-.128-6.336-.128-.448 0-.448.576 0 .576 3.072 0 3.904.576 7.488 8.384l10.176 22.528-.704 1.6c-2.88 6.656-5.44 7.616-8.64 7.616z"
      ></path>
    </svg>

